<?xml version="1.0" standalone="no"?>
<!DOCTYPE svg PUBLIC "-//W3C//DTD SVG 20010904//EN"
 "http://www.w3.org/TR/2001/REC-SVG-20010904/DTD/svg10.dtd">
<svg version="1.0" xmlns="http://www.w3.org/2000/svg"
 width="930.000000pt" height="930.000000pt" viewBox="0 0 930.000000 930.000000"
 preserveAspectRatio="xMidYMid meet">
<metadata>
Created by potrace 1.14, written by Peter Selinger 2001-2017
</metadata>
<g transform="translate(0.000000,930.000000) scale(0.100000,-0.100000)"
fill="#000000" stroke="none">
<path d="M4379 9266 c-2 -2 -49 -7 -104 -10 -142 -10 -329 -35 -470 -62 -44
-8 -91 -17 -105 -20 -101 -19 -344 -86 -493 -135 -669 -225 -1256 -587 -1752
-1084 -128 -128 -214 -221 -291 -315 -16 -19 -31 -37 -34 -40 -3 -3 -39 -50
-80 -105 -41 -55 -78 -102 -81 -105 -10 -10 -177 -266 -217 -335 -165 -283
-289 -558 -392 -865 -32 -96 -75 -242 -95 -325 -20 -82 -39 -157 -42 -165 -5
-15 -9 -36 -16 -95 -3 -16 -7 -43 -11 -60 -3 -16 -8 -43 -11 -60 -2 -16 -9
-65 -15 -109 -16 -112 -18 -125 -19 -184 -1 -32 -5 -51 -11 -47 -6 4 -7 -2 -1
-17 4 -12 4 -38 0 -56 -7 -31 -5 -555 2 -642 2 -20 0 -43 -4 -53 -4 -11 -3
-16 3 -12 6 4 10 -13 11 -42 0 -26 2 -57 5 -68 2 -11 7 -40 9 -65 3 -25 8 -58
11 -75 18 -101 20 -125 10 -136 -8 -9 -8 -10 1 -5 8 4 14 -6 18 -31 3 -21 10
-55 16 -75 5 -20 9 -40 8 -45 -1 -4 1 -20 5 -36 6 -18 4 -33 -5 -45 -12 -15
-12 -16 2 -5 14 11 18 4 32 -59 8 -40 13 -77 10 -83 -4 -5 -2 -7 2 -2 7 6 21
-31 39 -108 1 -5 12 -41 24 -78 12 -38 19 -74 15 -80 -3 -5 -2 -7 4 -4 6 4 16
-12 22 -36 12 -39 48 -134 76 -202 27 -65 40 -100 37 -107 -1 -5 2 -8 8 -8 5
0 10 -7 10 -15 0 -9 7 -27 16 -40 9 -14 14 -32 10 -40 -3 -8 0 -14 7 -12 7 1
11 -6 9 -18 -2 -11 -1 -17 4 -13 10 11 36 -43 29 -61 -3 -8 -3 -12 1 -8 4 4
16 -7 26 -23 19 -32 24 -55 10 -46 -5 3 -9 -1 -9 -9 0 -11 4 -12 13 -4 10 8
21 -6 49 -60 19 -39 36 -74 37 -78 1 -5 10 -17 20 -27 10 -11 18 -26 18 -33 0
-7 5 -13 10 -13 6 0 10 -6 10 -14 0 -7 9 -25 21 -40 11 -14 21 -34 22 -45 0
-11 6 -19 11 -18 5 1 16 -11 24 -28 8 -16 18 -32 21 -35 16 -13 59 -78 65 -97
4 -13 11 -23 16 -23 4 0 21 -20 37 -45 15 -25 31 -45 36 -45 4 0 7 -6 7 -14 0
-8 4 -16 8 -18 9 -3 113 -133 116 -143 0 -4 25 -32 54 -63 106 -112 122 -130
122 -134 0 -9 181 -188 191 -188 5 0 9 -5 9 -11 0 -6 7 -17 15 -25 8 -9 15
-13 15 -11 0 2 21 -15 47 -39 26 -24 51 -44 56 -44 4 0 5 -5 2 -10 -3 -5 -1
-10 5 -10 15 0 80 -61 75 -70 -3 -4 3 -7 13 -6 9 0 16 -5 14 -12 -1 -6 1 -11
5 -11 21 3 33 -3 33 -17 0 -8 3 -13 8 -10 12 7 45 -22 37 -33 -3 -6 0 -9 7 -6
8 3 23 -4 35 -15 12 -11 27 -20 32 -20 6 0 16 -9 23 -20 7 -11 17 -20 21 -20
18 0 67 -42 61 -52 -4 -7 -2 -8 4 -4 14 9 52 -15 52 -32 0 -7 4 -10 10 -7 19
12 32 -6 18 -23 -11 -15 -11 -15 2 -6 17 13 65 0 56 -14 -3 -5 0 -9 7 -9 7 0
65 -32 130 -72 64 -39 144 -85 177 -102 45 -23 58 -34 54 -47 -5 -13 -4 -14 4
-4 8 12 13 12 33 0 13 -7 27 -17 30 -21 3 -5 8 -8 10 -6 11 7 50 -11 44 -20
-3 -6 -11 -8 -17 -5 -7 4 -8 2 -4 -5 6 -9 11 -9 22 -1 10 9 21 9 43 -1 16 -7
27 -17 24 -22 -3 -4 1 -7 8 -6 21 4 60 -11 54 -21 -3 -4 4 -6 15 -3 11 3 20 1
20 -4 0 -5 6 -10 13 -11 6 0 30 -7 52 -16 29 -10 39 -19 37 -33 -2 -11 0 -14
5 -7 9 12 42 10 52 -3 3 -4 12 -8 19 -9 6 -1 19 -2 27 -2 8 -1 24 -12 36 -24
12 -13 19 -17 15 -10 -4 6 -2 12 3 12 6 0 11 -8 11 -17 0 -14 2 -15 9 -4 5 8
16 11 30 6 12 -3 18 -11 15 -17 -5 -7 -2 -8 6 -3 7 4 16 2 21 -6 7 -12 9 -12
9 0 0 9 4 10 13 4 6 -5 39 -18 72 -28 75 -24 64 -21 103 -30 18 -4 35 -11 38
-16 2 -4 12 -5 21 -2 9 4 14 2 11 -3 -4 -5 6 -10 20 -11 15 0 36 -4 47 -7 39
-11 150 -36 175 -40 14 -2 39 -6 55 -10 17 -3 41 -9 55 -12 14 -3 39 -7 55 -9
17 -2 30 -4 30 -5 0 -1 11 -3 25 -5 14 -1 45 -6 70 -10 25 -4 59 -9 75 -11 17
-2 44 -5 60 -8 17 -3 53 -6 82 -7 29 -1 51 -5 49 -8 -2 -3 37 -7 87 -8 144 -2
489 -2 522 0 17 1 36 -2 44 -8 11 -7 13 -7 8 2 -5 8 4 12 30 12 21 0 58 2 83
5 25 3 70 8 100 10 30 3 70 8 87 12 21 4 38 2 49 -6 12 -11 15 -11 12 1 -2 9
7 15 27 17 87 9 414 74 434 87 6 3 11 0 11 -7 0 -10 2 -10 9 1 5 8 14 10 21 6
8 -5 11 -4 7 2 -9 15 29 23 44 9 8 -7 10 -7 6 0 -4 7 10 16 36 23 23 7 50 15
61 18 14 4 16 2 10 -8 -6 -11 -5 -12 8 -2 8 7 19 9 23 5 5 -4 5 -2 1 5 -7 13
151 66 167 56 6 -4 7 -1 2 7 -6 10 -4 12 8 7 9 -3 18 -1 20 6 3 9 10 8 28 -2
22 -13 23 -13 10 2 -12 15 -11 17 7 17 11 0 22 5 24 10 2 6 17 11 35 13 17 1
29 4 27 6 -2 2 13 12 33 21 27 12 42 14 51 7 10 -8 12 -7 10 3 -2 8 6 16 17
18 11 2 22 7 25 11 10 13 82 41 91 36 5 -4 9 -2 9 4 0 11 208 116 227 114 7 0
10 3 7 8 -5 8 17 14 39 10 4 0 6 2 5 6 -2 5 -1 8 2 8 3 0 26 15 52 33 26 18
49 32 53 32 4 0 26 13 50 30 30 21 45 26 48 17 4 -7 6 -6 6 4 1 14 18 28 36
29 3 0 14 8 24 18 38 34 49 41 55 35 3 -4 6 -1 6 5 0 7 7 12 15 12 8 0 15 5
15 11 0 6 7 9 15 6 8 -4 17 -1 21 5 5 7 2 8 -6 3 -9 -6 -11 -4 -6 4 5 7 15 10
23 7 8 -3 12 -2 9 3 -3 5 0 14 8 20 11 9 15 9 19 -1 4 -8 6 -7 6 4 1 19 36 42
51 33 6 -3 7 1 4 9 -3 9 -1 16 4 16 6 0 23 12 37 26 14 14 32 23 40 20 9 -3
12 0 9 8 -6 14 22 30 37 21 5 -4 6 1 3 9 -6 16 28 40 41 28 5 -4 6 -2 2 4 -3
5 6 19 20 30 14 10 38 30 53 44 15 14 58 52 94 85 37 33 95 88 129 122 33 34
65 59 70 56 6 -3 7 -2 4 4 -8 12 57 76 67 66 4 -4 4 1 0 12 -6 14 -4 17 9 12
9 -3 16 -3 16 1 -3 19 2 33 10 28 5 -3 11 4 14 15 3 12 10 18 17 14 6 -3 9 -3
8 2 -5 13 53 83 63 77 5 -3 9 -2 8 3 -3 13 12 43 23 43 5 0 6 -5 2 -12 -4 -7
-3 -8 5 -4 6 4 9 12 5 17 -3 5 28 51 68 102 41 50 94 121 119 157 24 36 47 67
50 70 12 10 99 149 99 158 0 6 7 12 15 16 8 3 15 12 15 21 0 8 4 15 8 15 4 0
14 16 21 35 7 19 18 40 24 47 7 7 27 42 46 78 18 36 40 70 47 76 8 6 11 13 8
17 -3 3 0 14 7 26 11 16 16 18 29 8 13 -10 13 -10 2 4 -9 12 -10 24 -2 43 5
14 12 26 15 26 4 0 4 -4 1 -8 -3 -5 1 -9 9 -9 11 0 12 4 4 13 -14 17 -2 57 14
48 7 -4 9 -4 5 0 -11 12 13 67 25 59 7 -3 9 -3 5 2 -4 4 -2 15 5 23 10 13 9
14 -2 7 -15 -8 -10 5 13 34 5 7 11 20 12 28 3 16 28 74 50 115 8 15 14 29 14
30 -1 2 2 16 6 31 5 21 9 25 15 15 7 -9 8 -8 7 7 -4 32 33 145 45 138 6 -3 7
-1 3 5 -10 16 15 93 27 85 6 -3 7 -1 3 5 -4 7 6 59 23 116 16 58 33 121 37
140 3 21 10 33 17 29 5 -3 7 -1 4 4 -4 6 4 64 17 129 14 66 27 139 31 164 4
24 9 48 11 52 3 4 7 31 9 60 2 29 6 62 9 73 2 11 7 56 11 100 4 44 9 94 12
110 9 50 12 637 4 687 -4 26 -3 54 2 64 7 12 6 15 -2 10 -7 -5 -11 8 -12 41 0
26 -2 55 -4 64 -1 8 -6 42 -9 75 -4 32 -9 66 -11 74 -2 8 -6 35 -9 60 -3 25
-8 56 -11 70 -3 14 -8 41 -11 60 -4 19 -9 44 -11 55 -2 11 -6 31 -8 45 -29
177 -175 638 -266 838 -16 35 -29 65 -29 68 0 2 -26 57 -57 121 -182 374 -421
732 -698 1042 -52 59 -286 293 -350 352 -82 74 -303 250 -410 325 -101 72
-340 224 -351 224 -3 0 -18 8 -32 19 -39 27 -331 172 -444 220 -141 60 -318
124 -438 160 -174 52 -210 62 -228 66 -9 2 -46 10 -82 19 -83 19 -320 63 -385
71 -27 3 -59 8 -70 10 -11 2 -56 7 -100 10 -44 4 -91 9 -105 12 -28 5 -605 14
-611 9z"/>
<path d="M8990 3426 c0 -2 7 -7 16 -10 8 -3 12 -2 9 4 -6 10 -25 14 -25 6z"/>
<path d="M8906 3262 c-3 -5 1 -9 9 -9 8 0 12 4 9 9 -3 4 -7 8 -9 8 -2 0 -6 -4
-9 -8z"/>
<path d="M650 2599 c0 -5 5 -7 10 -4 6 3 10 8 10 11 0 2 -4 4 -10 4 -5 0 -10
-5 -10 -11z"/>
<path d="M8575 2540 c-3 -5 -1 -10 4 -10 6 0 11 5 11 10 0 6 -2 10 -4 10 -3 0
-8 -4 -11 -10z"/>
<path d="M675 2471 c-3 -5 -2 -12 3 -15 5 -3 9 1 9 9 0 17 -3 19 -12 6z"/>
<path d="M8450 2360 c0 -5 5 -10 11 -10 5 0 7 5 4 10 -3 6 -8 10 -11 10 -2 0
-4 -4 -4 -10z"/>
<path d="M715 2340 c-3 -5 -1 -10 4 -10 6 0 11 5 11 10 0 6 -2 10 -4 10 -3 0
-8 -4 -11 -10z"/>
<path d="M815 2320 c-3 -5 -1 -10 4 -10 6 0 11 5 11 10 0 6 -2 10 -4 10 -3 0
-8 -4 -11 -10z"/>
<path d="M874 2220 c0 -13 4 -16 10 -10 7 7 7 13 0 20 -6 6 -10 3 -10 -10z"/>
<path d="M8376 2198 c3 -5 10 -6 15 -3 13 9 11 12 -6 12 -8 0 -12 -4 -9 -9z"/>
<path d="M8333 2171 c0 -11 5 -18 9 -15 4 3 5 11 1 19 -7 21 -12 19 -10 -4z"/>
<path d="M986 2058 c3 -5 10 -6 15 -3 13 9 11 12 -6 12 -8 0 -12 -4 -9 -9z"/>
<path d="M1039 1993 c-12 -16 -12 -17 2 -6 9 7 20 9 24 5 5 -4 5 -1 1 6 -9 16
-11 15 -27 -5z"/>
<path d="M8219 1988 c-5 -18 -6 -38 -1 -34 7 8 12 36 6 36 -2 0 -4 -1 -5 -2z"/>
<path d="M1030 1941 c0 -6 4 -13 10 -16 6 -3 7 1 4 9 -7 18 -14 21 -14 7z"/>
<path d="M8130 1899 c0 -5 5 -7 10 -4 6 3 10 8 10 11 0 2 -4 4 -10 4 -5 0 -10
-5 -10 -11z"/>
<path d="M1115 1889 c-4 -6 -5 -12 -2 -15 2 -3 7 2 10 11 7 17 1 20 -8 4z"/>
<path d="M1170 1799 c0 -5 5 -7 10 -4 6 3 10 8 10 11 0 2 -4 4 -10 4 -5 0 -10
-5 -10 -11z"/>
<path d="M8066 1778 c3 -5 10 -6 15 -3 13 9 11 12 -6 12 -8 0 -12 -4 -9 -9z"/>
<path d="M8010 1759 c0 -5 5 -7 10 -4 6 3 10 8 10 11 0 2 -4 4 -10 4 -5 0 -10
-5 -10 -11z"/>
<path d="M8015 1731 c-3 -5 -2 -12 3 -15 5 -3 9 1 9 9 0 17 -3 19 -12 6z"/>
<path d="M1270 1580 c0 -5 5 -10 11 -10 5 0 7 5 4 10 -3 6 -8 10 -11 10 -2 0
-4 -4 -4 -10z"/>
<path d="M1379 1588 c-5 -18 -6 -38 -1 -34 7 8 12 36 6 36 -2 0 -4 -1 -5 -2z"/>
<path d="M1415 1560 c3 -5 8 -10 11 -10 2 0 4 5 4 10 0 6 -5 10 -11 10 -5 0
-7 -4 -4 -10z"/>
<path d="M7853 1515 c0 -8 4 -12 9 -9 5 3 6 10 3 15 -9 13 -12 11 -12 -6z"/>
<path d="M1455 1480 c3 -5 8 -10 11 -10 2 0 4 5 4 10 0 6 -5 10 -11 10 -5 0
-7 -4 -4 -10z"/>
<path d="M1499 1448 c-5 -18 -6 -38 -1 -34 7 8 12 36 6 36 -2 0 -4 -1 -5 -2z"/>
<path d="M1530 1399 c0 -5 5 -7 10 -4 6 3 10 8 10 11 0 2 -4 4 -10 4 -5 0 -10
-5 -10 -11z"/>
<path d="M7674 1402 c4 -3 14 -7 22 -8 9 -1 13 0 10 4 -4 3 -14 7 -22 8 -9 1
-13 0 -10 -4z"/>
<path d="M7736 1402 c-3 -5 1 -9 9 -9 8 0 12 4 9 9 -3 4 -7 8 -9 8 -2 0 -6 -4
-9 -8z"/>
<path d="M1550 1360 c0 -5 5 -10 11 -10 5 0 7 5 4 10 -3 6 -8 10 -11 10 -2 0
-4 -4 -4 -10z"/>
<path d="M1610 1345 c0 -5 5 -17 10 -25 5 -8 10 -10 10 -5 0 6 -5 17 -10 25
-5 8 -10 11 -10 5z"/>
<path d="M7570 1320 c0 -5 5 -10 11 -10 5 0 7 5 4 10 -3 6 -8 10 -11 10 -2 0
-4 -4 -4 -10z"/>
<path d="M7653 1309 c-2 -23 3 -25 10 -4 4 8 3 16 -1 19 -4 3 -9 -4 -9 -15z"/>
<path d="M7570 1279 c0 -5 5 -7 10 -4 6 3 10 8 10 11 0 2 -4 4 -10 4 -5 0 -10
-5 -10 -11z"/>
<path d="M7535 1240 c-3 -5 -1 -10 4 -10 6 0 11 5 11 10 0 6 -2 10 -4 10 -3 0
-8 -4 -11 -10z"/>
<path d="M7295 1080 c3 -5 8 -10 11 -10 2 0 4 5 4 10 0 6 -5 10 -11 10 -5 0
-7 -4 -4 -10z"/>
<path d="M7330 1080 c0 -5 5 -10 11 -10 5 0 7 5 4 10 -3 6 -8 10 -11 10 -2 0
-4 -4 -4 -10z"/>
<path d="M1955 1061 c-3 -5 -2 -12 3 -15 5 -3 9 1 9 9 0 17 -3 19 -12 6z"/>
<path d="M1979 1028 c-5 -18 -6 -38 -1 -34 7 8 12 36 6 36 -2 0 -4 -1 -5 -2z"/>
<path d="M7296 1022 c-3 -5 1 -9 9 -9 8 0 12 4 9 9 -3 4 -7 8 -9 8 -2 0 -6 -4
-9 -8z"/>
<path d="M7135 960 c-3 -5 -1 -10 4 -10 6 0 11 5 11 10 0 6 -2 10 -4 10 -3 0
-8 -4 -11 -10z"/>
<path d="M7175 960 c-3 -5 -1 -10 4 -10 6 0 11 5 11 10 0 6 -2 10 -4 10 -3 0
-8 -4 -11 -10z"/>
<path d="M2214 935 c3 -23 12 -26 13 -5 1 11 -2 20 -7 20 -4 0 -7 -7 -6 -15z"/>
<path d="M2085 920 c-3 -6 1 -7 9 -4 18 7 21 14 7 14 -6 0 -13 -4 -16 -10z"/>
<path d="M2136 922 c-3 -5 1 -9 9 -9 8 0 12 4 9 9 -3 4 -7 8 -9 8 -2 0 -6 -4
-9 -8z"/>
<path d="M7114 922 c4 -3 14 -7 22 -8 9 -1 13 0 10 4 -4 3 -14 7 -22 8 -9 1
-13 0 -10 -4z"/>
<path d="M6980 905 c0 -2 6 -8 13 -14 10 -8 14 -7 14 2 0 8 -6 14 -14 14 -7 0
-13 -1 -13 -2z"/>
<path d="M2175 880 c3 -5 8 -10 11 -10 2 0 4 5 4 10 0 6 -5 10 -11 10 -5 0 -7
-4 -4 -10z"/>
<path d="M7074 882 c4 -3 14 -7 22 -8 9 -1 13 0 10 4 -4 3 -14 7 -22 8 -9 1
-13 0 -10 -4z"/>
<path d="M2036 853 c-6 -14 -5 -15 5 -6 7 7 10 15 7 18 -3 3 -9 -2 -12 -12z"/>
<path d="M2304 862 c4 -3 14 -7 22 -8 9 -1 13 0 10 4 -4 3 -14 7 -22 8 -9 1
-13 0 -10 -4z"/>
<path d="M2219 848 c-5 -18 -6 -38 -1 -34 7 8 12 36 6 36 -2 0 -4 -1 -5 -2z"/>
<path d="M6990 836 c0 -2 8 -10 18 -17 15 -13 16 -12 3 4 -13 16 -21 21 -21
13z"/>
<path d="M2349 783 c-13 -16 -12 -17 4 -4 9 7 17 15 17 17 0 8 -8 3 -21 -13z"/>
<path d="M6790 786 c0 -2 7 -7 16 -10 8 -3 12 -2 9 4 -6 10 -25 14 -25 6z"/>
<path d="M6894 756 c1 -8 5 -18 8 -22 4 -3 5 1 4 10 -1 8 -5 18 -8 22 -4 3 -5
-1 -4 -10z"/>
<path d="M2396 747 c3 -10 9 -15 12 -12 3 3 0 11 -7 18 -10 9 -11 8 -5 -6z"/>
<path d="M2470 746 c0 -2 7 -7 16 -10 8 -3 12 -2 9 4 -6 10 -25 14 -25 6z"/>
<path d="M2513 735 c0 -8 4 -12 9 -9 5 3 6 10 3 15 -9 13 -12 11 -12 -6z"/>
<path d="M2516 702 c-3 -5 1 -9 9 -9 8 0 12 4 9 9 -3 4 -7 8 -9 8 -2 0 -6 -4
-9 -8z"/>
<path d="M6679 693 c-13 -16 -12 -17 4 -4 16 13 21 21 13 21 -2 0 -10 -8 -17
-17z"/>
<path d="M6770 700 c0 -5 5 -10 11 -10 5 0 7 5 4 10 -3 6 -8 10 -11 10 -2 0
-4 -4 -4 -10z"/>
<path d="M2579 668 c-5 -18 -6 -38 -1 -34 7 8 12 36 6 36 -2 0 -4 -1 -5 -2z"/>
<path d="M2675 661 c-3 -5 -2 -12 3 -15 5 -3 9 1 9 9 0 17 -3 19 -12 6z"/>
<path d="M2610 639 c0 -5 5 -7 10 -4 6 3 10 8 10 11 0 2 -4 4 -10 4 -5 0 -10
-5 -10 -11z"/>
<path d="M6655 640 c-3 -5 -1 -10 4 -10 6 0 11 5 11 10 0 6 -2 10 -4 10 -3 0
-8 -4 -11 -10z"/>
<path d="M2475 629 c-4 -6 -5 -12 -2 -15 2 -3 7 2 10 11 7 17 1 20 -8 4z"/>
<path d="M6595 599 c-3 -4 2 -6 10 -5 21 3 28 13 10 13 -9 0 -18 -4 -20 -8z"/>
<path d="M6475 591 c-3 -5 -2 -12 3 -15 5 -3 9 1 9 9 0 17 -3 19 -12 6z"/>
<path d="M2733 555 c0 -8 4 -12 9 -9 5 3 6 10 3 15 -9 13 -12 11 -12 -6z"/>
<path d="M6533 549 c-2 -23 3 -25 10 -4 4 8 3 16 -1 19 -4 3 -9 -4 -9 -15z"/>
<path d="M6436 547 c3 -10 9 -15 12 -12 3 3 0 11 -7 18 -10 9 -11 8 -5 -6z"/>
<path d="M2850 519 c0 -5 5 -7 10 -4 6 3 10 8 10 11 0 2 -4 4 -10 4 -5 0 -10
-5 -10 -11z"/>
<path d="M2990 501 c0 -6 4 -13 10 -16 6 -3 7 1 4 9 -7 18 -14 21 -14 7z"/>
<path d="M3039 493 c-13 -16 -12 -17 4 -4 16 13 21 21 13 21 -2 0 -10 -8 -17
-17z"/>
<path d="M3070 501 c0 -6 4 -13 10 -16 6 -3 7 1 4 9 -7 18 -14 21 -14 7z"/>
<path d="M6190 501 c0 -6 4 -13 10 -16 6 -3 7 1 4 9 -7 18 -14 21 -14 7z"/>
<path d="M6333 485 c0 -8 4 -12 9 -9 5 3 6 10 3 15 -9 13 -12 11 -12 -6z"/>
<path d="M6066 478 c3 -5 10 -6 15 -3 13 9 11 12 -6 12 -8 0 -12 -4 -9 -9z"/>
<path d="M3177 455 c-4 -8 -3 -16 1 -19 4 -3 9 4 9 15 2 23 -3 25 -10 4z"/>
<path d="M6259 468 c-5 -18 -6 -38 -1 -34 7 8 12 36 6 36 -2 0 -4 -1 -5 -2z"/>
<path d="M3095 440 c3 -5 8 -10 11 -10 2 0 4 5 4 10 0 6 -5 10 -11 10 -5 0 -7
-4 -4 -10z"/>
<path d="M3266 442 c-3 -5 1 -9 9 -9 8 0 12 4 9 9 -3 4 -7 8 -9 8 -2 0 -6 -4
-9 -8z"/>
<path d="M6116 418 c3 -5 10 -6 15 -3 13 9 11 12 -6 12 -8 0 -12 -4 -9 -9z"/>
<path d="M3136 402 c-3 -5 1 -9 9 -9 8 0 12 4 9 9 -3 4 -7 8 -9 8 -2 0 -6 -4
-9 -8z"/>
<path d="M3175 400 c3 -5 8 -10 11 -10 2 0 4 5 4 10 0 6 -5 10 -11 10 -5 0 -7
-4 -4 -10z"/>
<path d="M3350 396 c0 -2 8 -10 18 -17 15 -13 16 -12 3 4 -13 16 -21 21 -21
13z"/>
<path d="M3475 391 c-3 -5 -2 -12 3 -15 5 -3 9 1 9 9 0 17 -3 19 -12 6z"/>
<path d="M5606 342 l-19 -27 24 22 c12 12 21 24 18 27 -2 2 -13 -8 -23 -22z"/>
<path d="M5970 360 c0 -5 5 -10 11 -10 5 0 7 5 4 10 -3 6 -8 10 -11 10 -2 0
-4 -4 -4 -10z"/>
<path d="M3686 338 c3 -5 10 -6 15 -3 13 9 11 12 -6 12 -8 0 -12 -4 -9 -9z"/>
<path d="M3726 342 c-3 -5 1 -9 9 -9 8 0 12 4 9 9 -3 4 -7 8 -9 8 -2 0 -6 -4
-9 -8z"/>
<path d="M3375 331 c-3 -5 -2 -12 3 -15 5 -3 9 1 9 9 0 17 -3 19 -12 6z"/>
<path d="M3455 320 c3 -5 8 -10 11 -10 2 0 4 5 4 10 0 6 -5 10 -11 10 -5 0 -7
-4 -4 -10z"/>
<path d="M3490 319 c0 -5 5 -7 10 -4 6 3 10 8 10 11 0 2 -4 4 -10 4 -5 0 -10
-5 -10 -11z"/>
<path d="M5850 319 c0 -5 5 -7 10 -4 6 3 10 8 10 11 0 2 -4 4 -10 4 -5 0 -10
-5 -10 -11z"/>
<path d="M3775 309 c-4 -6 -5 -12 -2 -15 2 -3 7 2 10 11 7 17 1 20 -8 4z"/>
<path d="M3236 302 c-3 -5 1 -9 9 -9 8 0 12 4 9 9 -3 4 -7 8 -9 8 -2 0 -6 -4
-9 -8z"/>
<path d="M3533 291 c0 -11 5 -18 9 -15 4 3 5 11 1 19 -7 21 -12 19 -10 -4z"/>
<path d="M6036 298 c3 -5 10 -6 15 -3 13 9 11 12 -6 12 -8 0 -12 -4 -9 -9z"/>
<path d="M5493 285 c0 -8 4 -12 9 -9 5 3 6 10 3 15 -9 13 -12 11 -12 -6z"/>
<path d="M3575 280 c3 -5 8 -10 11 -10 2 0 4 5 4 10 0 6 -5 10 -11 10 -5 0 -7
-4 -4 -10z"/>
<path d="M3947 279 c7 -7 15 -10 18 -7 3 3 -2 9 -12 12 -14 6 -15 5 -6 -5z"/>
<path d="M5715 279 c-3 -4 2 -6 10 -5 21 3 28 13 10 13 -9 0 -18 -4 -20 -8z"/>
<path d="M5036 267 c3 -10 9 -15 12 -12 3 3 0 11 -7 18 -10 9 -11 8 -5 -6z"/>
<path d="M4087 257 c3 -4 8 -6 11 -3 3 3 10 1 17 -4 8 -7 12 -6 12 3 0 7 -11
13 -23 13 -12 0 -20 -4 -17 -9z"/>
<path d="M4170 261 c0 -6 4 -13 10 -16 6 -3 7 1 4 9 -7 18 -14 21 -14 7z"/>
<path d="M4435 251 c-3 -5 -2 -12 3 -15 5 -3 9 1 9 9 0 17 -3 19 -12 6z"/>
<path d="M4510 246 c0 -2 7 -7 16 -10 8 -3 12 -2 9 4 -6 10 -25 14 -25 6z"/>
<path d="M5613 235 c0 -8 4 -12 9 -9 5 3 6 10 3 15 -9 13 -12 11 -12 -6z"/>
<path d="M3953 225 c0 -8 4 -12 9 -9 5 3 6 10 3 15 -9 13 -12 11 -12 -6z"/>
<path d="M4255 229 c-4 -6 -5 -12 -2 -15 2 -3 7 2 10 11 7 17 1 20 -8 4z"/>
<path d="M5193 227 c0 -8 6 -14 14 -14 9 0 10 4 2 14 -6 7 -12 13 -14 13 -1 0
-2 -6 -2 -13z"/>
<path d="M4470 226 c0 -2 7 -7 16 -10 8 -3 12 -2 9 4 -6 10 -25 14 -25 6z"/>
<path d="M4313 205 c0 -8 4 -12 9 -9 5 3 6 10 3 15 -9 13 -12 11 -12 -6z"/>
<path d="M3816 201 c-3 -4 6 -7 19 -7 14 0 22 2 19 5 -8 8 -34 10 -38 2z"/>
<path d="M4135 200 c-3 -5 -1 -10 4 -10 6 0 11 5 11 10 0 6 -2 10 -4 10 -3 0
-8 -4 -11 -10z"/>
<path d="M4520 200 c-9 -6 -10 -10 -3 -10 6 0 15 5 18 10 8 12 4 12 -15 0z"/>
<path d="M3475 191 c-3 -5 -2 -12 3 -15 5 -3 9 1 9 9 0 17 -3 19 -12 6z"/>
<path d="M4270 196 c0 -2 8 -10 18 -17 15 -13 16 -12 3 4 -13 16 -21 21 -21
13z"/>
<path d="M4593 187 c0 -8 6 -14 14 -14 9 0 10 4 2 14 -6 7 -12 13 -14 13 -1 0
-2 -6 -2 -13z"/>
<path d="M4835 191 c-3 -5 -2 -12 3 -15 5 -3 9 1 9 9 0 17 -3 19 -12 6z"/>
<path d="M3725 180 c-3 -6 1 -7 9 -4 18 7 21 14 7 14 -6 0 -13 -4 -16 -10z"/>
<path d="M4630 186 c0 -2 7 -7 16 -10 8 -3 12 -2 9 4 -6 10 -25 14 -25 6z"/>
<path d="M4977 175 c-4 -8 -3 -16 1 -19 4 -3 9 4 9 15 2 23 -3 25 -10 4z"/>
<path d="M5097 175 c-4 -8 -3 -16 1 -19 4 -3 9 4 9 15 2 23 -3 25 -10 4z"/>
<path d="M4133 165 c0 -8 4 -12 9 -9 5 3 6 10 3 15 -9 13 -12 11 -12 -6z"/>
<path d="M4933 165 c0 -8 4 -12 9 -9 5 3 6 10 3 15 -9 13 -12 11 -12 -6z"/>
<path d="M4035 160 c-3 -5 -1 -10 4 -10 6 0 11 5 11 10 0 6 -2 10 -4 10 -3 0
-8 -4 -11 -10z"/>
<path d="M4375 160 c3 -5 8 -10 11 -10 2 0 4 5 4 10 0 6 -5 10 -11 10 -5 0 -7
-4 -4 -10z"/>
<path d="M4415 160 c3 -5 8 -10 11 -10 2 0 4 5 4 10 0 6 -5 10 -11 10 -5 0 -7
-4 -4 -10z"/>
<path d="M4336 142 c-3 -5 1 -9 9 -9 8 0 12 4 9 9 -3 4 -7 8 -9 8 -2 0 -6 -4
-9 -8z"/>
<path d="M4515 141 c-3 -5 -2 -12 3 -15 5 -3 9 1 9 9 0 17 -3 19 -12 6z"/>
<path d="M4550 140 c0 -5 5 -10 11 -10 5 0 7 5 4 10 -3 6 -8 10 -11 10 -2 0
-4 -4 -4 -10z"/>
<path d="M4836 127 c3 -10 9 -15 12 -12 3 3 0 11 -7 18 -10 9 -11 8 -5 -6z"/>
</g>
</svg>
